0720 version of this as well as the 1080p/720p versions of the rest should be up within the next few days.

General
Format                                   : Matroska
Format version                           : Version 4 / Version 2
File size                                : 8.81 GiB
Duration                                 : 1h 57mn
Overall bit rate                         : 10.7 Mbps
Encoded date                             : UTC 2013-03-20 20:30:30
Writing application                      : mkvmerge v6.1.0 ('Old Devil') built on Mar  2 2013 22:22:31
Writing library                          : libebml v1.3.0 + libmatroska v1.4.0

Video
ID                                       : 1
Format                                   : AVC
Format/Info                              : Advanced Video Codec
Format profile                           : High@L4.1
Format settings, CABAC                   : Yes
Format settings, ReFrames                : 5 frames
Codec ID                                 : V_MPEG4/ISO/AVC
Duration                                 : 1h 57mn
Bit rate                                 : 9 175 Kbps
Width                                    : 1 920 pixels
Height                                   : 800 pixels
Display aspect ratio                     : 2.40:1
Frame rate                               : 23.976 fps
Color space                              : YUV
Chroma subsampling                       : 4:2:0
Bit depth                                : 8 bits
Scan type                                : Progressive
Bits/(Pixel*Frame)                       : 0.249
Stream size                              : 7.48 GiB (85%)
Writing library                          : x264 core 120 r2120 0c7dab9
Language                                 : English
Default                                  : Yes
Forced                                   : No

Audio
ID                                       : 2
Format                                   : DTS
Format/Info                              : Digital Theater Systems
Codec ID                                 : A_DTS
Duration                                 : 1h 57mn
Bit rate mode                            : Constant
Bit rate                                 : 1 411.2 Kbps
Channel(s)                               : 2 channels
Channel positions                        : Front: L R
Sampling rate                            : 48.0 KHz
Bit depth                                : 16 bits
Compression mode                         : Lossy
Stream size                              : 1.16 GiB (13%)
Default                                  : Yes
Forced                                   : No